<svg xmlns="http://www.w3.org/2000/svg" version="1.1" xmlns:xlink="http://www.w3.org/1999/xlink" width="512" height="512" x="0" y="0" viewBox="0 0 512 512" style="enable-background:new 0 0 512 512" xml:space="preserve" class=""><g><path fill="#4caf50" d="M256 0C152.722 0 69 83.774 69 187.101c0 113.753 77.942 140.558 118.835 210.301C225.905 462.304 225.936 512 256 512c31.177 0 29.209-46.296 68.165-114.597C363.11 329.091 443 300.854 443 187.101 443 83.774 359.278 0 256 0zm0 258.802c-38.636 0-69.958-31.338-69.958-69.99 0-19.337 7.83-36.829 20.493-49.5 12.662-12.661 30.147-20.501 49.465-20.501 38.636 0 69.947 31.338 69.947 70.001 0 38.652-31.311 69.99-69.947 69.99z" opacity="1" data-original="#4caf50"></path><path fill="#43a047" d="M256 0c-5.205 0-10.357.223-15.455.64C336.591 8.504 412.09 88.981 412.09 187.101c0 113.753-79.89 141.99-118.835 210.301-30.854 54.097-36.039 94.384-52.351 108.803C245.086 509.972 249.931 512 256 512c31.177 0 29.209-46.296 68.165-114.597C363.11 329.091 443 300.854 443 187.101 443 83.774 359.278 0 256 0z" opacity="1" data-original="#43a047"></path><path fill="#f44336" d="M206.533 139.315 83.587 262.328c-8.993-20.493-14.586-44.735-14.586-75.225 0-51.237 20.586-97.656 53.924-131.443z" opacity="1" data-original="#f44336" class=""></path><path fill="#42a5f5" d="M305.954 237.803c12.37-12.625 19.998-29.918 19.998-48.993 0-38.663-31.32-70-69.95-70-19.321 0-36.808 7.837-49.468 20.504l123.85-123.918c44.27 19.215 79.639 55.069 98.252 99.676L305.958 237.817z" opacity="1" data-original="#42a5f5"></path><path fill="#2196f3" d="m330.384 15.396-10.44 10.446c41.535 24.508 72.777 64.613 85.667 112.268l23.026-23.038c-18.614-44.608-53.983-80.461-98.253-99.676z" opacity="1" data-original="#2196f3"></path><path fill="#ffc107" d="M305.958 237.817 170.932 372.918c-29.358-37.003-67.025-64.206-87.344-110.59l122.946-123.013c-12.66 12.667-20.493 30.164-20.493 49.496 0 38.651 31.32 69.988 69.961 69.988 19.566 0 37.256-8.039 49.952-20.996z" opacity="1" data-original="#ffc107"></path><path fill="#1e88e5" d="M330.384 15.396 206.533 139.315l-83.608-83.654C156.833 21.294 203.934 0 256.002 0c26.434 0 51.592 5.492 74.382 15.396z" opacity="1" data-original="#1e88e5"></path><path fill="#1976d2" d="M256.002 0c-5.204 0-10.356.222-15.453.64l-.003.001a185.789 185.789 0 0 1 79.399 25.201l10.44-10.446C307.594 5.492 282.436 0 256.002 0z" opacity="1" data-original="#1976d2"></path></g></svg>